<svg viewBox="0 0 24 24" fill="none" xmlns="http://www.w3.org/2000/svg">
  <path fill-rule="evenodd" clip-rule="evenodd" d="M15.361 2.912a3.112 3.112 0 0 1 4.401 0l1.326 1.326a3.112 3.112 0 0 1 0 4.401L8.64 21.089a3.112 3.112 0 0 1-2.2.911H2.85a.849.849 0 0 1-.85-.849v-3.59c0-.825.328-1.616.912-2.2L15.36 2.911Zm3.201 1.2a1.415 1.415 0 0 0-2 0l-2.327 2.326 3.327 3.327 2.326-2.326a1.415 1.415 0 0 0 0-2.001l-1.326-1.326Zm-2.2 6.853L13.034 7.64l-8.922 8.92a1.415 1.415 0 0 0-.414 1v2.741h2.74c.375 0 .735-.149 1-.414l8.923-8.923Z" fill="#494c6b"/>
</svg>
